<?xml version="1.0" encoding="UTF-8" standalone="no"?>
<!DOCTYPE svg PUBLIC "-//W3C//DTD SVG 1.1//EN" "http://www.w3.org/Graphics/SVG/1.1/DTD/svg11.dtd">
<svg xmlns:xl="http://www.w3.org/1999/xlink" xmlns:dc="http://purl.org/dc/elements/1.1/" xmlns="http://www.w3.org/2000/svg" version="1.1" viewBox="0 0 1024 1024" width="1024" height="1024">
  <defs/>
  <metadata> Produced by OmniGraffle 7.10.2 
    <dc:date>2019-04-28 07:57:40 +0000</dc:date>
  </metadata>
  <g id="Canvas_1" stroke="none" fill="none" stroke-dasharray="none" stroke-opacity="1" fill-opacity="1">
    <title>Canvas 1</title>
    <rect fill="white" x="0" y="0" width="1024" height="1024"/>
    <g id="Canvas_1: Layer 1">
      <title>Layer 1</title>
      <g id="Graphic_2">
        <path d="M 878.9953 868.5092 L 519.1999 1023.5046 L 155.24309 878.7476 L .247702 518.95217 L 145.00474 154.99539 L 504.8001 5684342e-20 L 868.7569 144.75704 L 1023.7523 504.5524 Z M 860.1699 489.36004 C 855.0507 489.36004 795.3711 491.11047 728.39245 494.04986 C 724.62844 448.3763 706.5001 405.06713 676.6062 370.331 C 709.1268 340.68584 741.3517 310.71792 773.27605 280.43167 C 777.3642 276.3599 779.6623 270.82757 779.6623 265.05764 C 779.6623 259.2877 777.3642 253.75537 773.27605 249.6836 C 769.2043 245.59546 763.67195 243.2974 757.902 243.2974 C 752.1321 243.2974 746.59975 245.59546 742.528 249.6836 L 652.7608 346.4195 C 617.859 316.67654 574.4318 298.75527 528.7116 295.22774 C 531.651 228.24912 533.4345 168.56946 533.4345 163.45028 C 533.4345 151.39346 523.6605 141.61948 511.6037 141.61948 C 499.54686 141.61948 489.7729 151.39346 489.7729 163.45028 C 489.7729 168.56946 491.5563 228.24912 494.3636 295.22774 C 448.59607 298.8106 405.1533 316.85392 370.31447 346.74975 C 340.71577 314.39933 310.83628 282.30695 280.67937 250.47625 C 276.6076 246.3881 271.07527 244.09004 265.30534 244.09004 C 259.5354 244.09004 254.00307 246.3881 249.9313 250.47625 C 245.84317 254.548 243.5451 260.08035 243.5451 265.85028 C 243.5451 271.62022 245.84317 277.15255 249.9313 281.22432 C 253.5973 284.7582 296.92862 325.64554 346.3369 370.66125 C 316.3915 405.5727 298.34514 449.11533 294.8149 494.9746 C 251.12556 492.9931 207.41781 491.4408 163.69798 490.3178 C 151.64117 490.3178 141.86718 500.0918 141.86718 512.1486 C 141.86718 524.20544 151.64117 533.9794 163.69798 533.9794 C 168.78413 533.9794 228.1005 532.196 294.8149 529.3226 C 298.4126 575.16574 316.45063 618.68825 346.3369 653.636 C 314.06578 683.10225 282.08318 712.88295 250.39368 742.9738 C 246.29936 747.0356 243.99645 752.5641 243.99645 758.3314 C 243.99645 764.0986 246.29936 769.6271 250.39368 773.6889 C 254.45544 777.7832 259.98394 780.0861 265.7512 780.0861 C 271.51846 780.0861 277.04697 777.7832 281.10872 773.6889 C 284.7417 770.08895 325.3648 726.8897 370.44657 677.6796 C 405.48407 707.5374 449.1164 725.4669 495.02416 728.8713 C 493.04444 772.5387 491.4921 816.2244 490.36736 859.9222 C 490.36736 867.7216 494.5283 874.9285 501.28276 878.8282 C 508.03723 882.7279 516.3591 882.7279 523.11356 878.8282 C 529.86804 874.9285 534.02896 867.7216 534.02896 859.9222 C 534.02896 854.8361 532.31156 795.4536 529.37217 728.8053 C 575.2216 725.07555 618.6928 706.84494 653.4874 676.75485 C 683.0766 709.114 712.9562 741.2065 743.1225 773.02835 C 747.1942 777.1165 752.7266 779.4146 758.4965 779.4146 C 764.2664 779.4146 769.7988 777.1165 773.8705 773.02835 C 777.96485 768.9666 780.2678 763.4381 780.2678 757.6708 C 780.2678 751.9036 777.96485 746.3751 773.8705 742.3133 C 770.2706 738.7134 726.8732 697.72695 677.531 652.5791 C 707.2654 617.5936 725.101 574.0571 728.4585 528.26576 C 795.3711 531.20516 855.0507 532.9886 860.1699 532.9886 C 871.8876 532.5326 881.1518 522.90085 881.1518 511.1743 C 881.1518 499.4478 871.8876 489.81606 860.1699 489.36004 Z M 563.489 551.4837 C 570.7254 542.1278 575.2601 530.96804 576.6007 519.2164 C 607.679 522.1888 651.836 524.7319 696.0921 526.91166 C 693.0458 565.0811 678.20265 601.35796 653.6195 630.7153 C 624.1027 603.7115 594.0533 577.2958 563.489 551.4837 Z M 562.9275 471.2613 C 593.4103 445.6279 623.3396 419.34343 652.6947 392.426 C 677.5056 421.5461 692.6484 457.66016 696.0261 495.76726 C 656.14705 497.4979 616.3081 500.0525 576.5346 503.4295 C 574.9881 491.67445 570.28586 480.55795 562.9275 471.2613 Z M 519.39803 447.1516 C 522.3374 416.2054 524.9135 372.0484 527.0603 327.7923 C 565.1952 330.9346 601.4059 345.87137 630.6658 370.52914 C 603.74476 399.9278 577.39534 429.8448 551.6323 460.2633 C 542.3223 452.96926 531.1561 448.4273 519.39803 447.1516 Z M 556.0249 476.97494 L 567.6834 504.2882 C 568.2779 508.945 568.34394 513.6018 567.74946 518.32466 L 556.5533 545.8361 L 546.77736 555.8763 L 519.4641 567.4687 C 514.8073 568.0632 510.1505 568.1293 505.42764 567.5348 L 477.9162 556.3056 L 467.9421 546.5627 L 456.3496 519.2164 C 455.7327 514.57034 455.7105 509.8646 456.28357 505.21297 L 467.44667 477.6685 L 477.1896 467.7274 L 504.5359 456.13495 C 509.1597 455.54046 513.8165 455.4744 518.53933 456.0689 L 546.0838 467.19897 L 556.0249 476.97494 Z M 392.4095 370.79336 C 421.63496 346.03824 457.84945 331.00755 496.01496 327.7923 C 498.1617 372.11443 500.7378 416.27144 503.6772 447.2177 C 491.93737 448.74664 480.83765 453.45146 471.57504 460.82477 C 445.79253 430.2868 419.3987 400.27027 392.4095 370.79336 Z M 447.3663 504.35426 C 407.4283 500.95016 367.42413 498.3735 327.37946 496.62596 C 330.55227 458.3907 345.5856 422.10054 370.3805 392.8223 C 399.90263 419.80763 429.94067 446.22304 460.478 472.0539 C 453.25656 481.431 448.72396 492.59694 447.3663 504.35426 Z M 461.1385 552.17726 C 437.02887 572.1916 403.67167 601.7507 370.7108 631.6731 C 345.75515 602.4363 330.59986 566.1075 327.37946 527.8034 C 367.4461 526.0556 407.4723 523.47896 447.43235 520.0751 C 448.9516 531.5354 453.4763 542.5664 461.1385 552.17726 Z M 504.668 576.31995 C 501.6956 607.4974 499.08647 651.98465 496.9067 696.4389 C 458.604 693.3757 422.2121 678.4356 392.8058 653.70205 C 422.7282 620.6751 452.2873 587.3179 472.4007 563.20826 C 481.9785 570.67234 493.1086 574.9989 504.668 576.31995 Z M 631.6566 652.84335 C 602.51326 677.8248 566.28775 693.0679 528.0511 696.4389 C 526.30526 656.35015 523.7286 616.3019 520.3228 576.31995 C 531.78313 574.8007 542.7811 570.276 552.42496 562.6798 C 578.22305 593.26704 604.639 623.3277 631.6566 652.84335 Z" fill="#316ce6"/>
      </g>
      <g id="Group_3">
        <g id="Graphic_6">
          <path d="M 805.4423 773.8026 L 804.0322 776.6227 L 804.9374 777.1449 C 805.4423 777.4234 812.00495 781.1835 819.5251 785.4832 L 833.1901 793.2992 L 833.1553 795.5274 C 833.1031 798.2604 832.7375 800.9412 832.0586 803.7438 C 829.9 812.5869 824.6081 819.6719 816.5309 824.5634 L 815.1906 825.3816 L 801.1252 817.3392 C 793.3961 812.9177 786.816 809.1576 786.5027 808.9661 L 785.9457 808.6354 L 785.23195 810.028 L 784.5356 811.438 L 785.319 813.6314 C 788.2957 821.7956 792.8739 829.1764 797.9918 834.0158 C 806.156 841.7274 816.9139 845.7486 830.666 846.1837 C 834.3564 846.3056 835.1746 846.4623 837.2287 847.559 C 841.215 849.6653 846.3155 853.6516 853.9923 860.6147 C 858.1005 864.34 860.1372 866.307 866.5432 872.6782 L 872.2355 878.3183 L 883.4112 867.1426 L 894.6044 855.9843 L 888.5987 849.9438 C 872.4966 833.7547 863.0617 822.8749 859.5975 816.4863 C 858.5357 814.5192 858.3964 813.7532 858.2745 809.6102 C 858.0308 801.0456 856.8819 795.16185 854.4971 790.044 C 852.1645 785.0654 848.1607 780.7657 843.2343 777.9805 C 835.7142 773.7156 825.4959 771.5396 810.9605 771.12185 L 806.8523 771 Z" fill="white"/>
        </g>
        <g id="Graphic_5">
          <path d="M 967.1421 787.694 C 959.5872 792.9859 953.2856 797.4945 953.1638 797.7208 C 953.0419 797.9471 952.363 800.506 951.6319 803.4305 L 950.3263 808.7224 L 909.9405 849.0734 L 869.5721 889.4244 L 864.0017 885.9429 L 858.4312 882.4613 L 855.646 885.2466 C 852.9304 887.9622 852.8608 888.0666 852.8608 888.7803 C 852.8608 889.8422 852.5648 891.757 852.1645 893.2889 C 850.5455 899.5905 845.184 905.6135 837.7857 909.391 C 834.1649 911.2536 830.2134 912.5418 826.7841 912.9596 L 824.9911 913.1859 L 801.9955 936.164 L 779 959.1247 L 779.1219 960.6218 C 779.5919 966.9234 783.19525 973.7298 788.992 979.335 C 793.988 984.157 799.454 987.0989 805.2508 988.0389 C 806.1212 988.1781 807.1656 988.3 807.5834 988.3 L 808.3493 988.3 L 831.3101 965.3393 C 852.5474 944.0671 854.2534 942.3263 854.2534 941.7867 C 854.2534 939.9067 855.2108 935.9899 856.3771 933.0306 C 860.0153 923.8742 866.6476 917.1548 874.0459 915.1878 C 874.7944 914.9789 876.3089 914.7352 877.4404 914.6133 L 879.4597 914.4218 L 882.1927 911.7062 L 884.9257 908.9732 L 881.4268 903.3854 L 877.9278 897.7801 L 918.1395 857.5858 C 940.2647 835.4954 958.4731 817.3044 958.6124 817.1826 C 958.7516 817.0607 961.3106 816.3644 964.2873 815.6159 C 967.264 814.8673 969.8055 814.1536 969.9274 814.0144 C 970.0492 813.8925 974.4708 807.6257 979.7453 800.0882 L 989.3195 786.3884 L 985.6987 782.7676 C 983.6968 780.7831 981.7994 778.9031 981.4861 778.6072 L 980.8942 778.0501 Z" fill="#306ce7"/>
        </g>
        <g id="Graphic_4">
          <path d="M 900.1574 883.8888 L 889.0339 895.0471 L 896.6062 902.6368 C 907.2946 913.3774 912.5517 918.913 917.8784 925.1101 C 923.6578 931.8295 927.2786 937.104 927.8704 939.7326 C 927.9575 940.1678 928.0793 942.1523 928.149 944.1715 C 928.4797 956.8443 931.0386 964.7996 936.6439 970.666 C 939.1506 973.2946 941.5355 975.0354 944.9474 976.7239 C 952.3456 980.4143 961.8676 982.2595 975.4456 982.6599 L 979.5538 982.7818 L 980.9638 979.9791 L 982.3739 977.1591 L 981.4687 976.6369 C 980.9638 976.3583 974.4011 972.5983 966.881 968.2986 L 953.216 960.4825 L 953.2508 958.3414 C 953.4597 946.0342 959.3957 935.5373 969.7011 929.3228 L 971.2155 928.4002 L 985.281 936.4425 C 993.01 940.8641 999.59 944.6241 999.9034 944.8156 L 1000.4604 945.1464 L 1001.1567 943.7538 L 1001.853 942.3786 L 1001.3656 940.9163 C 1000.1471 937.3303 997.9189 932.5432 995.8996 929.201 C 988.7103 917.2941 977.9175 910.3484 963.3125 908.2421 C 960.5098 907.8417 956.5931 907.5284 954.1212 907.5284 C 951.4752 907.5284 949.6126 906.7973 945.9048 904.3428 C 940.0036 900.4087 932.4138 893.6023 918.4877 879.7283 C 914.6058 875.8812 911.3854 872.713 911.3505 872.7304 C 911.2983 872.7304 906.2675 877.7613 900.1574 883.8888 Z" fill="#306ce7"/>
        </g>
      </g>
    </g>
  </g>
</svg>
